<?xml version="1.0" encoding="utf-8"?>
<!-- Generator: Adobe Illustrator 24.1.2, SVG Export Plug-In . SVG Version: 6.00 Build 0)  -->
<svg version="1.1" id="Layer_1" xmlns="http://www.w3.org/2000/svg" xmlns:xlink="http://www.w3.org/1999/xlink" x="0px" y="0px"
	 viewBox="0 0 120 120" style="enable-background:new 0 0 120 120;" xml:space="preserve">
<style type="text/css">
	.st0{fill:url(#SVGID_1_);}
</style>
<g>
	<linearGradient id="SVGID_1_" gradientUnits="userSpaceOnUse" x1="25.4651" y1="9.2115" x2="88.2906" y2="118.0284">
		<stop  offset="0" style="stop-color:#E92600"/>
		<stop  offset="0.0879" style="stop-color:#DE9C00"/>
		<stop  offset="0.1652" style="stop-color:#D4FF00"/>
		<stop  offset="0.1851" style="stop-color:#CEFC00"/>
		<stop  offset="0.2122" style="stop-color:#BCF500"/>
		<stop  offset="0.2435" style="stop-color:#A0E900"/>
		<stop  offset="0.2778" style="stop-color:#78D800"/>
		<stop  offset="0.3147" style="stop-color:#45C200"/>
		<stop  offset="0.3531" style="stop-color:#07A800"/>
		<stop  offset="0.3568" style="stop-color:#01A500"/>
		<stop  offset="0.3769" style="stop-color:#02A40F"/>
		<stop  offset="0.4157" style="stop-color:#05A237"/>
		<stop  offset="0.4693" style="stop-color:#0A9E77"/>
		<stop  offset="0.5348" style="stop-color:#119ACE"/>
		<stop  offset="0.5698" style="stop-color:#1597FF"/>
		<stop  offset="0.6001" style="stop-color:#178CF3"/>
		<stop  offset="0.6545" style="stop-color:#1D70D4"/>
		<stop  offset="0.7263" style="stop-color:#2743A2"/>
		<stop  offset="0.7458" style="stop-color:#2A3693"/>
		<stop  offset="0.9469" style="stop-color:#CE12FF"/>
	</linearGradient>
	<path class="st0" d="M88.79,83.77c-2.53-11.05-7.43-18.64-15.64-21.48v-0.47c11.21-3.8,20.06-13.12,20.06-27.18
		c0-8.21-3-15.48-8.37-20.22c-6.64-6-16.11-8.69-30.81-8.69c-9.48,0-19.43,0.79-26.38,2.22V113h13.74V66.87h12.96
		c12.48,0.48,18.17,6.01,21.33,20.7c3,13.26,5.37,22.43,7.1,25.43H97C94.79,108.89,92.26,98.62,88.79,83.77z M55.45,56.44H41.39
		V17.58c2.22-0.63,6.96-1.26,13.59-1.26c14.53,0.16,24.49,6.16,24.49,19.9C79.47,48.39,70.15,56.44,55.45,56.44z"/>
</g>
</svg>
